<svg t="1775194034575" class="icon" viewBox="0 0 1024 1024" version="1.1" xmlns="http://www.w3.org/2000/svg" p-id="3639" width="200" height="200"><path d="M480 256c-110.912 0-180.288 49.792-208 149.312 41.6-49.728 90.112-68.48 145.6-56 31.616 7.104 54.272 27.712 79.36 50.56C537.6 436.992 584.832 480 688 480c110.912 0 180.288-49.792 208-149.312-41.6 49.728-90.112 68.48-145.6 56-31.68-7.104-54.272-27.712-79.36-50.56C630.4 299.008 583.168 256 480 256zM272 480c-110.912 0-180.288 49.792-208 149.312 41.6-49.728 90.112-68.48 145.6-56 31.616 7.104 54.272 27.712 79.36 50.56C329.6 660.992 376.832 704 480 704c110.912 0 180.288-49.792 208-149.312-41.6 49.728-90.112 68.48-145.6 56-31.616-7.104-54.272-27.712-79.36-50.56C422.4 523.008 375.168 480 272 480z" fill="#89DDFF" p-id="3640"></path></svg>